<mxfile host="app.diagrams.net" modified="2023-10-30T14:13:54.602Z" agent="Mozilla/5.0 (Macintosh; Intel Mac OS X 10_15_7) AppleWebKit/537.36 (KHTML, like Gecko) Chrome/118.0.0.0 Safari/537.36" etag="xgqrMTiuHzL-I0sOPTdI" version="21.7.2" type="github">
  <diagram name="Seite-1" id="xGW0DIRhsOd95Wp1l_jv">
    <mxGraphModel dx="1038" dy="674" grid="1" gridSize="10" guides="1" tooltips="1" connect="1" arrows="1" fold="1" page="1" pageScale="1" pageWidth="827" pageHeight="1169" math="0" shadow="0">
      <root>
        <mxCell id="0" />
        <mxCell id="1" parent="0" />
        <mxCell id="aO_Ze_uZd863VPeM1ly--1" value="" style="rounded=0;whiteSpace=wrap;html=1;fillColor=#f5f5f5;fontColor=#333333;strokeColor=#666666;" vertex="1" parent="1">
          <mxGeometry x="30" y="110" width="720" height="410" as="geometry" />
        </mxCell>
        <mxCell id="aO_Ze_uZd863VPeM1ly--2" value="&lt;font style=&quot;font-size: 22px;&quot;&gt;EVM&lt;/font&gt;" style="text;html=1;strokeColor=none;fillColor=none;align=center;verticalAlign=middle;whiteSpace=wrap;rounded=0;" vertex="1" parent="1">
          <mxGeometry x="40" y="120" width="60" height="30" as="geometry" />
        </mxCell>
        <mxCell id="aO_Ze_uZd863VPeM1ly--3" value="" style="rounded=0;whiteSpace=wrap;html=1;" vertex="1" parent="1">
          <mxGeometry x="60" y="210" width="410" height="280" as="geometry" />
        </mxCell>
        <mxCell id="aO_Ze_uZd863VPeM1ly--4" value="&lt;font style=&quot;font-size: 22px;&quot;&gt;Program Counter&lt;/font&gt;" style="rounded=0;whiteSpace=wrap;html=1;fillColor=#e1d5e7;strokeColor=#9673a6;" vertex="1" parent="1">
          <mxGeometry x="80" y="252" width="150" height="85" as="geometry" />
        </mxCell>
        <mxCell id="aO_Ze_uZd863VPeM1ly--5" value="&lt;font style=&quot;font-size: 22px;&quot;&gt;Gas available&lt;/font&gt;" style="rounded=0;whiteSpace=wrap;html=1;fillColor=#e1d5e7;strokeColor=#9673a6;" vertex="1" parent="1">
          <mxGeometry x="80" y="368" width="150" height="85" as="geometry" />
        </mxCell>
        <mxCell id="aO_Ze_uZd863VPeM1ly--6" value="&lt;font style=&quot;font-size: 22px;&quot;&gt;Stack&lt;/font&gt;" style="rounded=0;whiteSpace=wrap;html=1;fillColor=#e1d5e7;strokeColor=#9673a6;" vertex="1" parent="1">
          <mxGeometry x="280" y="250" width="150" height="85" as="geometry" />
        </mxCell>
        <mxCell id="aO_Ze_uZd863VPeM1ly--7" value="&lt;font style=&quot;font-size: 22px;&quot;&gt;Memory&lt;/font&gt;" style="rounded=0;whiteSpace=wrap;html=1;fillColor=#e1d5e7;strokeColor=#9673a6;" vertex="1" parent="1">
          <mxGeometry x="280" y="368" width="150" height="85" as="geometry" />
        </mxCell>
        <mxCell id="aO_Ze_uZd863VPeM1ly--8" value="&lt;font style=&quot;font-size: 22px;&quot;&gt;Account&lt;br&gt;Storage&lt;/font&gt;" style="shape=cylinder3;whiteSpace=wrap;html=1;boundedLbl=1;backgroundOutline=1;size=15;fillColor=#d5e8d4;strokeColor=#82b366;" vertex="1" parent="1">
          <mxGeometry x="567.5" y="370" width="95" height="120" as="geometry" />
        </mxCell>
        <mxCell id="aO_Ze_uZd863VPeM1ly--9" value="" style="shape=note2;boundedLbl=1;whiteSpace=wrap;html=1;size=25;verticalAlign=top;align=center;fillColor=#d5e8d4;strokeColor=#82b366;" vertex="1" parent="1">
          <mxGeometry x="520" y="210" width="190" height="90" as="geometry" />
        </mxCell>
        <mxCell id="aO_Ze_uZd863VPeM1ly--11" value="&lt;font style=&quot;font-size: 22px;&quot;&gt;Immutable&lt;br&gt;EVM Code&lt;/font&gt;" style="text;html=1;strokeColor=none;fillColor=none;align=center;verticalAlign=middle;whiteSpace=wrap;rounded=0;" vertex="1" parent="1">
          <mxGeometry x="510" y="238" width="200" height="30" as="geometry" />
        </mxCell>
        <mxCell id="aO_Ze_uZd863VPeM1ly--13" value="&lt;font style=&quot;font-size: 22px;&quot;&gt;&lt;b&gt;Volatile&lt;/b&gt; Machine State&lt;/font&gt;" style="text;html=1;strokeColor=none;fillColor=none;align=center;verticalAlign=middle;whiteSpace=wrap;rounded=0;" vertex="1" parent="1">
          <mxGeometry x="70" y="216" width="250" height="30" as="geometry" />
        </mxCell>
        <mxCell id="aO_Ze_uZd863VPeM1ly--14" value="&lt;font style=&quot;font-size: 22px;&quot;&gt;&lt;b&gt;Persistent&lt;/b&gt; World State&lt;/font&gt;" style="text;html=1;strokeColor=none;fillColor=none;align=center;verticalAlign=middle;whiteSpace=wrap;rounded=0;" vertex="1" parent="1">
          <mxGeometry x="72" y="160" width="250" height="30" as="geometry" />
        </mxCell>
      </root>
    </mxGraphModel>
  </diagram>
</mxfile>
